<?xml version="1.0" encoding="utf-8"?>
<!-- Generator: Adobe Illustrator 28.3.0, SVG Export Plug-In . SVG Version: 6.00 Build 0)  -->
<svg version="1.1" id="Layer_1" xmlns="http://www.w3.org/2000/svg" xmlns:xlink="http://www.w3.org/1999/xlink" x="0px" y="0px"
	 viewBox="0 0 116.67 1400" style="enable-background:new 0 0 116.67 1400;" xml:space="preserve">
<style type="text/css">
	.st0{fill:none;stroke:#000000;stroke-miterlimit:10;}
</style>
<path class="st0" d="M58.33,0C26.12,0,0,26.12,0,58.33s26.12,58.33,58.33,58.33s58.33,26.12,58.33,58.33s-26.12,58.33-58.33,58.33
	S0,259.45,0,291.67S26.12,350,58.33,350s58.33,26.12,58.33,58.33s-26.12,58.33-58.33,58.33S0,492.78,0,525s26.12,58.33,58.33,58.33
	s58.33,26.12,58.33,58.33S90.55,700,58.33,700S0,726.12,0,758.33s26.12,58.33,58.33,58.33s58.33,26.12,58.33,58.33
	s-26.12,58.33-58.33,58.33S0,959.45,0,991.67S26.12,1050,58.33,1050s58.33,26.12,58.33,58.33c0,32.22-26.12,58.33-58.33,58.33
	S0,1192.78,0,1225s26.12,58.33,58.33,58.33s58.33,26.12,58.33,58.33c0,32.22-26.12,58.33-58.33,58.33"/>
</svg>
