<?xml version="1.0" encoding="UTF-8"?>
<svg id="Layer_1" data-name="Layer 1" xmlns="http://www.w3.org/2000/svg" version="1.1" viewBox="0 0 116.7 1400">
  <defs>
    <style>
      .cls-1 {
        fill: none;
        stroke: #000;
        stroke-miterlimit: 10;
      }
    </style>
  </defs>
  <path class="cls-1" d="M58.3,0C26.1,0,0,26.1,0,58.3s26.1,58.3,58.3,58.3,58.3,26.1,58.3,58.3-26.1,123.6-58.3,123.6S0,259.5,0,291.7s69.9,21.9,102.1,21.9-70.3,70.8-70.3,103,86.2,99.2,54,99.2-74.1-4.6-74.1,27.6,14.5,39.9,46.7,39.9,47.5-65.8,47.5-33.6-21.8-3.8-54-3.8,31.4,41.9,31.4,74.1-82.4-22.6-50.2-22.6,13.8,104.7,13.8,136.9,78.7-52.7,46.5-52.7-69.1,122.2-69.1,154.5,35.6-21.3,67.8-21.3-59,80.8-59,113,87.5-18.8,55.3-18.8-55.3,163.7-55.3,195.9-7.5,100.5,25.3,178.6c12.5,29.7,58.3,26.1,58.3,58.3s-26.1,58.3-58.3,58.3"/>
</svg>